<svg width="368" height="382" viewBox="0 0 368 382" fill="none" xmlns="http://www.w3.org/2000/svg">
<g id="Group 26">
<g id="Group 26_2">
<rect id="Rectangle" x="45.4128" y="23.3174" width="141.331" height="293.053" rx="22" fill="url(#paint0_linear)"/>
<path id="Blogr" fill-rule="evenodd" clip-rule="evenodd" d="M100.187 177.506V159.105H103.69V177.506H100.187ZM84.9021 177.506V159.993H91.3565C92.5573 159.993 93.5955 160.178 94.4711 160.548C95.3466 160.918 96.0221 161.445 96.4974 162.127C96.9727 162.809 97.2104 163.611 97.2104 164.532C97.2104 165.37 97.0269 166.106 96.66 166.739C96.2931 167.372 95.7761 167.87 95.109 168.232C96.0096 168.577 96.7101 169.124 97.2104 169.872C97.7107 170.62 97.9609 171.504 97.9609 172.523C97.9609 173.543 97.6941 174.422 97.1604 175.162C96.6267 175.902 95.8762 176.478 94.9088 176.889C93.9415 177.3 92.7991 177.506 91.4815 177.506H84.9021ZM88.5045 163.027V167.048H90.9562C91.7734 167.048 92.403 166.879 92.845 166.542C93.2869 166.205 93.5079 165.707 93.5079 165.05C93.5079 164.392 93.2869 163.89 92.845 163.545C92.403 163.2 91.7734 163.027 90.9562 163.027H88.5045ZM91.3064 174.472H88.5045V169.884H91.3064C92.2404 169.884 92.9617 170.081 93.4704 170.476C93.9791 170.871 94.2334 171.438 94.2334 172.178C94.2334 172.918 93.9791 173.485 93.4704 173.88C92.9617 174.274 92.2404 174.472 91.3064 174.472ZM110.119 177.358C110.953 177.703 111.862 177.876 112.846 177.876C113.847 177.876 114.768 177.703 115.61 177.358C116.453 177.012 117.186 176.527 117.812 175.902C118.437 175.277 118.925 174.546 119.275 173.707C119.626 172.869 119.801 171.956 119.801 170.969C119.801 169.983 119.63 169.074 119.288 168.244C118.946 167.413 118.466 166.69 117.849 166.073C117.232 165.457 116.507 164.976 115.673 164.63C114.839 164.285 113.93 164.112 112.946 164.112C111.945 164.112 111.024 164.285 110.182 164.63C109.339 164.976 108.606 165.461 107.98 166.086C107.355 166.711 106.867 167.438 106.517 168.269C106.166 169.099 105.991 170.007 105.991 170.994C105.991 171.981 106.162 172.893 106.504 173.732C106.846 174.57 107.326 175.298 107.943 175.915C108.56 176.531 109.285 177.012 110.119 177.358ZM112.896 174.768C113.53 174.768 114.097 174.603 114.597 174.274C115.097 173.946 115.494 173.498 115.785 172.93C116.077 172.363 116.223 171.718 116.223 170.994C116.223 170.27 116.077 169.625 115.785 169.058C115.494 168.491 115.097 168.042 114.597 167.714C114.097 167.385 113.53 167.22 112.896 167.22C112.262 167.22 111.695 167.385 111.195 167.714C110.694 168.042 110.298 168.491 110.007 169.058C109.715 169.625 109.569 170.27 109.569 170.994C109.569 171.718 109.715 172.363 110.007 172.93C110.298 173.498 110.694 173.946 111.195 174.274C111.695 174.603 112.262 174.768 112.896 174.768ZM125.192 176.642C125.917 176.971 126.697 177.136 127.531 177.136C128.365 177.136 129.128 176.967 129.82 176.63C130.512 176.293 131.083 175.828 131.534 175.236V176.297C131.534 176.988 131.4 177.592 131.133 178.11C130.866 178.628 130.495 179.031 130.02 179.318C129.545 179.606 128.982 179.75 128.331 179.75C127.731 179.75 127.193 179.614 126.718 179.343C126.242 179.072 125.855 178.698 125.555 178.221L122.202 179.035C122.536 179.758 122.994 180.391 123.578 180.934C124.162 181.477 124.846 181.9 125.63 182.204C126.413 182.508 127.297 182.661 128.281 182.661C129.282 182.661 130.195 182.5 131.021 182.18C131.846 181.859 132.559 181.403 133.16 180.811C133.76 180.219 134.223 179.512 134.548 178.689C134.873 177.867 135.036 176.955 135.036 175.952V164.482H131.809L131.734 166.086C131.283 165.444 130.716 164.955 130.033 164.618C129.349 164.281 128.582 164.112 127.731 164.112C126.864 164.112 126.059 164.281 125.317 164.618C124.575 164.955 123.924 165.42 123.366 166.012C122.807 166.604 122.373 167.298 122.065 168.096C121.756 168.893 121.602 169.761 121.602 170.698C121.602 171.602 121.752 172.445 122.052 173.226C122.352 174.007 122.769 174.69 123.303 175.273C123.837 175.857 124.466 176.313 125.192 176.642ZM128.381 174.077C128.998 174.077 129.545 173.925 130.02 173.621C130.495 173.317 130.875 172.906 131.158 172.388C131.442 171.87 131.584 171.282 131.584 170.624C131.584 169.966 131.442 169.378 131.158 168.86C130.875 168.343 130.495 167.931 130.02 167.627C129.545 167.323 128.998 167.171 128.381 167.171C127.764 167.171 127.218 167.323 126.743 167.627C126.267 167.931 125.888 168.343 125.605 168.86C125.321 169.378 125.179 169.966 125.179 170.624C125.179 171.282 125.321 171.87 125.605 172.388C125.888 172.906 126.267 173.317 126.743 173.621C127.218 173.925 127.764 174.077 128.381 174.077ZM141.065 164.482H137.838V177.506H141.34V171.117C141.34 170.049 141.599 169.222 142.116 168.638C142.633 168.055 143.375 167.763 144.342 167.763C144.542 167.763 144.738 167.775 144.93 167.8C145.122 167.825 145.309 167.87 145.493 167.936L145.868 164.532C145.685 164.466 145.476 164.413 145.243 164.371C145.009 164.33 144.776 164.31 144.542 164.31C143.775 164.31 143.108 164.495 142.541 164.865C141.974 165.235 141.524 165.765 141.19 166.456L141.065 164.482Z" fill="white"/>
<g id="Group 9">
<g id="Fill 1" filter="url(#filter0_d)">
<path fill-rule="evenodd" clip-rule="evenodd" d="M181.507 298.284C181.507 305.619 176.093 311.938 168.761 311.938H64.2053C56.8733 311.938 50.498 305.619 50.498 298.284V40.6784C50.498 33.3437 56.8733 27.9814 64.2053 27.9814H76.2931C78.8484 27.9814 79.7924 27.6891 79.9471 30.9295C80.0278 32.6125 80.6452 33.9209 81.634 35.0035C82.6221 36.066 83.9823 36.9392 85.5459 37.429C86.6064 37.7609 87.7873 38.0623 88.9137 38.0623H91.1962H141.881H144.165C145.291 38.0623 146.472 37.6922 147.532 37.3602C149.097 36.8705 150.455 36.0533 151.444 35.0103C152.434 33.9471 153.051 32.694 153.131 31.011C153.285 27.7713 154.231 27.9814 156.786 27.9814H168.761C176.093 27.9814 181.507 33.3437 181.507 40.6784V298.284ZM108.351 29.2412H124.727C125.423 29.2412 125.987 29.6726 125.987 30.291C125.987 30.91 125.423 31.3414 124.727 31.3414H108.351C107.655 31.3414 107.092 30.91 107.092 30.291C107.092 29.6726 107.655 29.2412 108.351 29.2412V29.2412ZM133.335 29.6031C133.335 30.6177 132.513 31.4409 131.498 31.4409C130.483 31.4409 129.661 30.6177 129.661 29.6031C129.661 28.5885 130.483 27.7653 131.498 27.7653C132.513 27.7653 133.335 28.5885 133.335 29.6031V29.6031ZM189.485 88.4688V41.506C189.485 29.6285 179.86 20 167.986 20H63.5282C51.2813 20 41.2601 30.0248 41.2601 42.2769V59.4853C40.5643 59.4853 40 60.049 40 60.7451V69.5661C40 70.2622 40.5643 70.8267 41.2601 70.8267V81.3278C40.5643 81.3278 40 81.8923 40 82.5883V101.491C40 102.186 40.5643 102.751 41.2601 102.751V109.051C40.5643 109.051 40 109.616 40 110.311V129.214C40 129.91 40.5643 130.474 41.2601 130.474V299.252C41.2601 311.543 51.3119 321.6 63.5977 321.6H167.986C179.81 321.6 189.485 311.921 189.485 300.093V123.333H189.905C190.601 123.333 191.165 122.769 191.165 122.073V89.7293C191.165 89.0333 190.601 88.4688 189.905 88.4688H189.485Z" fill="#1D1D25"/>
</g>
<path id="Fill 5" fill-rule="evenodd" clip-rule="evenodd" d="M124.727 29.241H108.351C107.655 29.241 107.091 29.6731 107.091 30.2914C107.091 30.9098 107.655 31.3412 108.351 31.3412H124.727C125.423 31.3412 125.987 30.9098 125.987 30.2914C125.987 29.6731 125.423 29.241 124.727 29.241" fill="black"/>
<path id="Fill 7" fill-rule="evenodd" clip-rule="evenodd" d="M131.498 27.7654C130.484 27.7654 129.661 28.5886 129.661 29.6032C129.661 30.6177 130.484 31.4409 131.498 31.4409C132.512 31.4409 133.335 30.6177 133.335 29.6032C133.335 28.5886 132.512 27.7654 131.498 27.7654" fill="black"/>
</g>
</g>
<g id="Group 26 Copy" clip-path="url(#clip0)">
<rect id="Rectangle_2" x="220.69" y="66.9635" width="141.331" height="293.053" rx="22" fill="url(#paint1_linear)"/>
<rect id="Rectangle_3" x="225.54" y="71.1202" width="131.17" height="287.04" rx="22" fill="white"/>
<path id="Rectangle Copy" d="M225.54 79.1202C225.54 74.702 229.122 71.1202 233.54 71.1202H348.71C353.128 71.1202 356.71 74.702 356.71 79.1202V121.881H225.54V79.1202Z" fill="url(#paint2_linear)"/>
<g id="Group 4">
<g id="Rectangle_4" filter="url(#filter1_d)">
<rect x="233.398" y="103.148" width="115.454" height="40.4878" rx="4" fill="white"/>
</g>
<g id="Rectangle Copy 2" filter="url(#filter2_d)">
<rect x="233.398" y="153.304" width="115.454" height="40.4878" rx="4" fill="white"/>
</g>
<g id="Rectangle Copy 3" filter="url(#filter3_d)">
<rect x="233.398" y="203.461" width="115.454" height="40.4878" rx="4" fill="white"/>
</g>
<g id="Rectangle Copy 4" filter="url(#filter4_d)">
<rect x="233.398" y="253.618" width="115.454" height="40.4878" rx="4" fill="white"/>
</g>
<g id="Rectangle Copy 5" filter="url(#filter5_d)">
<rect x="233.398" y="303.774" width="115.454" height="40.4878" rx="4" fill="white"/>
</g>
</g>
<path id="Blogr_2" fill-rule="evenodd" clip-rule="evenodd" d="M268.726 224.088V197.529H273.781V224.088H268.726ZM246.663 224.088V198.811H255.979C257.713 198.811 259.211 199.078 260.475 199.612C261.739 200.146 262.714 200.905 263.4 201.89C264.086 202.875 264.429 204.032 264.429 205.362C264.429 206.572 264.164 207.634 263.635 208.548C263.105 209.462 262.359 210.18 261.396 210.702C262.696 211.2 263.707 211.99 264.429 213.069C265.151 214.149 265.512 215.425 265.512 216.897C265.512 218.368 265.127 219.638 264.357 220.706C263.586 221.774 262.503 222.605 261.107 223.198C259.711 223.792 258.062 224.088 256.16 224.088H246.663ZM251.863 203.19V208.993H255.401C256.581 208.993 257.49 208.75 258.128 208.263C258.766 207.777 259.085 207.059 259.085 206.109C259.085 205.16 258.766 204.436 258.128 203.938C257.49 203.439 256.581 203.19 255.401 203.19H251.863ZM255.907 219.709H251.863V213.087H255.907C257.255 213.087 258.296 213.372 259.031 213.942C259.765 214.511 260.132 215.33 260.132 216.398C260.132 217.466 259.765 218.285 259.031 218.855C258.296 219.424 257.255 219.709 255.907 219.709ZM283.062 223.875C284.265 224.373 285.577 224.622 286.998 224.622C288.442 224.622 289.772 224.373 290.988 223.875C292.204 223.376 293.263 222.676 294.166 221.774C295.068 220.872 295.772 219.816 296.278 218.606C296.783 217.395 297.036 216.078 297.036 214.654C297.036 213.23 296.79 211.918 296.296 210.72C295.802 209.521 295.11 208.477 294.22 207.587C293.329 206.697 292.282 206.002 291.078 205.504C289.874 205.006 288.562 204.756 287.142 204.756C285.698 204.756 284.368 205.006 283.152 205.504C281.936 206.002 280.877 206.703 279.974 207.605C279.072 208.506 278.367 209.557 277.862 210.755C277.356 211.954 277.104 213.265 277.104 214.689C277.104 216.113 277.35 217.431 277.844 218.641C278.337 219.852 279.029 220.902 279.92 221.792C280.811 222.682 281.858 223.376 283.062 223.875ZM287.07 220.137C287.985 220.137 288.803 219.899 289.525 219.424C290.248 218.95 290.819 218.303 291.241 217.484C291.662 216.665 291.873 215.734 291.873 214.689C291.873 213.645 291.662 212.713 291.241 211.895C290.819 211.076 290.248 210.429 289.525 209.954C288.803 209.48 287.985 209.242 287.07 209.242C286.155 209.242 285.337 209.48 284.614 209.954C283.892 210.429 283.32 211.076 282.899 211.895C282.478 212.713 282.267 213.645 282.267 214.689C282.267 215.734 282.478 216.665 282.899 217.484C283.32 218.303 283.892 218.95 284.614 219.424C285.337 219.899 286.155 220.137 287.07 220.137ZM304.818 222.842C305.865 223.317 306.991 223.554 308.194 223.554C309.398 223.554 310.499 223.311 311.498 222.824C312.497 222.338 313.322 221.667 313.972 220.813V222.344C313.972 223.341 313.779 224.213 313.394 224.961C313.009 225.708 312.473 226.29 311.787 226.705C311.101 227.12 310.289 227.328 309.35 227.328C308.483 227.328 307.707 227.132 307.021 226.741C306.335 226.349 305.775 225.809 305.342 225.121L300.503 226.296C300.984 227.34 301.646 228.254 302.489 229.037C303.331 229.82 304.318 230.431 305.45 230.871C306.581 231.31 307.857 231.529 309.278 231.529C310.722 231.529 312.04 231.298 313.232 230.835C314.423 230.372 315.452 229.713 316.319 228.859C317.186 228.005 317.854 226.984 318.323 225.797C318.793 224.61 319.027 223.293 319.027 221.845V205.29H314.369L314.261 207.605C313.611 206.679 312.792 205.973 311.805 205.486C310.818 205 309.711 204.756 308.483 204.756C307.231 204.756 306.07 205 304.999 205.486C303.927 205.973 302.988 206.643 302.182 207.498C301.375 208.352 300.75 209.355 300.304 210.506C299.859 211.657 299.636 212.909 299.636 214.262C299.636 215.568 299.853 216.784 300.286 217.911C300.719 219.039 301.321 220.024 302.092 220.866C302.862 221.709 303.771 222.368 304.818 222.842ZM309.422 219.14C310.313 219.14 311.101 218.92 311.787 218.481C312.473 218.042 313.021 217.449 313.43 216.701C313.839 215.953 314.044 215.105 314.044 214.155C314.044 213.206 313.839 212.357 313.43 211.61C313.021 210.862 312.473 210.269 311.787 209.83C311.101 209.391 310.313 209.171 309.422 209.171C308.531 209.171 307.743 209.391 307.057 209.83C306.371 210.269 305.823 210.862 305.414 211.61C305.005 212.357 304.8 213.206 304.8 214.155C304.8 215.105 305.005 215.953 305.414 216.701C305.823 217.449 306.371 218.042 307.057 218.481C307.743 218.92 308.531 219.14 309.422 219.14ZM327.73 205.29H323.072V224.088H328.127V214.867C328.127 213.325 328.5 212.132 329.246 211.289C329.993 210.447 331.064 210.026 332.46 210.026C332.749 210.026 333.032 210.043 333.309 210.079C333.586 210.115 333.856 210.18 334.121 210.275L334.663 205.362C334.398 205.267 334.097 205.19 333.76 205.13C333.423 205.071 333.086 205.041 332.749 205.041C331.642 205.041 330.679 205.308 329.86 205.842C329.042 206.376 328.392 207.142 327.91 208.139L327.73 205.29Z" fill="white"/>
<g id="Group 9_2">
<g id="Fill 1_2" filter="url(#filter6_d)">
<path fill-rule="evenodd" clip-rule="evenodd" d="M356.785 341.93C356.785 349.265 351.37 355.584 344.038 355.584H239.483C232.151 355.584 225.776 349.265 225.776 341.93V84.3245C225.776 76.9898 232.151 71.6275 239.483 71.6275H251.571C254.126 71.6275 255.07 71.3352 255.225 74.5756C255.305 76.2586 255.923 77.567 256.912 78.6496C257.9 79.7121 259.26 80.5854 260.823 81.0751C261.884 81.4071 263.065 81.7084 264.191 81.7084H266.474H317.159H319.442C320.568 81.7084 321.749 81.3383 322.81 81.0063C324.374 80.5166 325.733 79.6994 326.722 78.6564C327.711 77.5932 328.329 76.3401 328.409 74.6571C328.563 71.4174 329.508 71.6275 332.064 71.6275H344.038C351.37 71.6275 356.785 76.9898 356.785 84.3245V341.93ZM283.629 72.8873H300.004C300.7 72.8873 301.265 73.3187 301.265 73.9371C301.265 74.5561 300.7 74.9875 300.004 74.9875H283.629C282.932 74.9875 282.37 74.5561 282.37 73.9371C282.37 73.3187 282.932 72.8873 283.629 72.8873V72.8873ZM308.613 73.2492C308.613 74.2638 307.79 75.087 306.776 75.087C305.761 75.087 304.939 74.2638 304.939 73.2492C304.939 72.2346 305.761 71.4114 306.776 71.4114C307.79 71.4114 308.613 72.2346 308.613 73.2492V73.2492ZM364.763 132.115V85.1521C364.763 73.2746 355.138 63.6461 343.264 63.6461H238.806C226.559 63.6461 216.538 73.6709 216.538 85.923V103.131C215.842 103.131 215.278 103.695 215.278 104.391V113.212C215.278 113.908 215.842 114.473 216.538 114.473V124.974C215.842 124.974 215.278 125.538 215.278 126.234V145.137C215.278 145.832 215.842 146.397 216.538 146.397V152.698C215.842 152.698 215.278 153.262 215.278 153.957V172.86C215.278 173.556 215.842 174.121 216.538 174.121V342.898C216.538 355.189 226.59 365.246 238.875 365.246H343.264C355.088 365.246 364.763 355.567 364.763 343.739V166.98H365.182C365.879 166.98 366.442 166.415 366.442 165.719V133.375C366.442 132.679 365.879 132.115 365.182 132.115H364.763Z" fill="#1D1D25"/>
</g>
<path id="Fill 5_2" fill-rule="evenodd" clip-rule="evenodd" d="M300.005 72.8871H283.629C282.932 72.8871 282.369 73.3192 282.369 73.9376C282.369 74.5559 282.932 74.9873 283.629 74.9873H300.005C300.7 74.9873 301.265 74.5559 301.265 73.9376C301.265 73.3192 300.7 72.8871 300.005 72.8871" fill="black"/>
<path id="Fill 7_2" fill-rule="evenodd" clip-rule="evenodd" d="M306.776 71.4115C305.762 71.4115 304.939 72.2347 304.939 73.2493C304.939 74.2639 305.762 75.0871 306.776 75.0871C307.79 75.0871 308.613 74.2639 308.613 73.2493C308.613 72.2347 307.79 71.4115 306.776 71.4115" fill="black"/>
</g>
</g>
</g>
<defs>
<filter id="filter0_d" x="0" y="0" width="231.165" height="381.6" filterUnits="userSpaceOnUse" color-interpolation-filters="sRGB">
<feFlood flood-opacity="0" result="BackgroundImageFix"/>
<feColorMatrix in="SourceAlpha" type="matrix" values="0 0 0 0 0 0 0 0 0 0 0 0 0 0 0 0 0 0 127 0"/>
<feOffset dy="20"/>
<feGaussianBlur stdDeviation="20"/>
<feColorMatrix type="matrix" values="0 0 0 0 0.421822 0 0 0 0 0.554338 0 0 0 0 0.89371 0 0 0 0.243444 0"/>
<feBlend mode="normal" in2="BackgroundImageFix" result="effect1_dropShadow"/>
<feBlend mode="normal" in="SourceGraphic" in2="effect1_dropShadow" result="shape"/>
</filter>
<filter id="filter1_d" x="213.398" y="93.1479" width="155.454" height="80.4878" filterUnits="userSpaceOnUse" color-interpolation-filters="sRGB">
<feFlood flood-opacity="0" result="BackgroundImageFix"/>
<feColorMatrix in="SourceAlpha" type="matrix" values="0 0 0 0 0 0 0 0 0 0 0 0 0 0 0 0 0 0 127 0"/>
<feOffset dy="10"/>
<feGaussianBlur stdDeviation="10"/>
<feColorMatrix type="matrix" values="0 0 0 0 0.421822 0 0 0 0 0.554338 0 0 0 0 0.89371 0 0 0 0.243444 0"/>
<feBlend mode="normal" in2="BackgroundImageFix" result="effect1_dropShadow"/>
<feBlend mode="normal" in="SourceGraphic" in2="effect1_dropShadow" result="shape"/>
</filter>
<filter id="filter2_d" x="213.398" y="143.304" width="155.454" height="80.4878" filterUnits="userSpaceOnUse" color-interpolation-filters="sRGB">
<feFlood flood-opacity="0" result="BackgroundImageFix"/>
<feColorMatrix in="SourceAlpha" type="matrix" values="0 0 0 0 0 0 0 0 0 0 0 0 0 0 0 0 0 0 127 0"/>
<feOffset dy="10"/>
<feGaussianBlur stdDeviation="10"/>
<feColorMatrix type="matrix" values="0 0 0 0 0.421822 0 0 0 0 0.554338 0 0 0 0 0.89371 0 0 0 0.243444 0"/>
<feBlend mode="normal" in2="BackgroundImageFix" result="effect1_dropShadow"/>
<feBlend mode="normal" in="SourceGraphic" in2="effect1_dropShadow" result="shape"/>
</filter>
<filter id="filter3_d" x="213.398" y="193.461" width="155.454" height="80.4878" filterUnits="userSpaceOnUse" color-interpolation-filters="sRGB">
<feFlood flood-opacity="0" result="BackgroundImageFix"/>
<feColorMatrix in="SourceAlpha" type="matrix" values="0 0 0 0 0 0 0 0 0 0 0 0 0 0 0 0 0 0 127 0"/>
<feOffset dy="10"/>
<feGaussianBlur stdDeviation="10"/>
<feColorMatrix type="matrix" values="0 0 0 0 0.421822 0 0 0 0 0.554338 0 0 0 0 0.89371 0 0 0 0.243444 0"/>
<feBlend mode="normal" in2="BackgroundImageFix" result="effect1_dropShadow"/>
<feBlend mode="normal" in="SourceGraphic" in2="effect1_dropShadow" result="shape"/>
</filter>
<filter id="filter4_d" x="213.398" y="243.618" width="155.454" height="80.4878" filterUnits="userSpaceOnUse" color-interpolation-filters="sRGB">
<feFlood flood-opacity="0" result="BackgroundImageFix"/>
<feColorMatrix in="SourceAlpha" type="matrix" values="0 0 0 0 0 0 0 0 0 0 0 0 0 0 0 0 0 0 127 0"/>
<feOffset dy="10"/>
<feGaussianBlur stdDeviation="10"/>
<feColorMatrix type="matrix" values="0 0 0 0 0.421822 0 0 0 0 0.554338 0 0 0 0 0.89371 0 0 0 0.243444 0"/>
<feBlend mode="normal" in2="BackgroundImageFix" result="effect1_dropShadow"/>
<feBlend mode="normal" in="SourceGraphic" in2="effect1_dropShadow" result="shape"/>
</filter>
<filter id="filter5_d" x="213.398" y="293.774" width="155.454" height="80.4878" filterUnits="userSpaceOnUse" color-interpolation-filters="sRGB">
<feFlood flood-opacity="0" result="BackgroundImageFix"/>
<feColorMatrix in="SourceAlpha" type="matrix" values="0 0 0 0 0 0 0 0 0 0 0 0 0 0 0 0 0 0 127 0"/>
<feOffset dy="10"/>
<feGaussianBlur stdDeviation="10"/>
<feColorMatrix type="matrix" values="0 0 0 0 0.421822 0 0 0 0 0.554338 0 0 0 0 0.89371 0 0 0 0.243444 0"/>
<feBlend mode="normal" in2="BackgroundImageFix" result="effect1_dropShadow"/>
<feBlend mode="normal" in="SourceGraphic" in2="effect1_dropShadow" result="shape"/>
</filter>
<filter id="filter6_d" x="175.278" y="43.6461" width="231.165" height="381.6" filterUnits="userSpaceOnUse" color-interpolation-filters="sRGB">
<feFlood flood-opacity="0" result="BackgroundImageFix"/>
<feColorMatrix in="SourceAlpha" type="matrix" values="0 0 0 0 0 0 0 0 0 0 0 0 0 0 0 0 0 0 127 0"/>
<feOffset dy="20"/>
<feGaussianBlur stdDeviation="20"/>
<feColorMatrix type="matrix" values="0 0 0 0 0.421822 0 0 0 0 0.554338 0 0 0 0 0.89371 0 0 0 0.243444 0"/>
<feBlend mode="normal" in2="BackgroundImageFix" result="effect1_dropShadow"/>
<feBlend mode="normal" in="SourceGraphic" in2="effect1_dropShadow" result="shape"/>
</filter>
<linearGradient id="paint0_linear" x1="-25.2524" y1="169.844" x2="204.072" y2="280.44" gradientUnits="userSpaceOnUse">
<stop stop-color="#FF8F71"/>
<stop offset="1" stop-color="#FF3E55"/>
</linearGradient>
<linearGradient id="paint1_linear" x1="150.025" y1="213.49" x2="379.349" y2="324.086" gradientUnits="userSpaceOnUse">
<stop stop-color="#FF8F71"/>
<stop offset="1" stop-color="#FF3E55"/>
</linearGradient>
<linearGradient id="paint2_linear" x1="159.955" y1="96.5007" x2="194.125" y2="184.799" gradientUnits="userSpaceOnUse">
<stop stop-color="#FF8F71"/>
<stop offset="1" stop-color="#FF3E55"/>
</linearGradient>
<clipPath id="clip0">
<rect width="152" height="303" fill="white" transform="translate(215.148 63.4995)"/>
</clipPath>
</defs>
</svg>
