<svg width="1322" height="1322" viewBox="0 0 1322 1322" fill="none" xmlns="http://www.w3.org/2000/svg">
<g id="Group 8">
<path id="Combined Shape" fill-rule="evenodd" clip-rule="evenodd" d="M769.607 319.082L465.49 196.211L342.619 500.327L554.017 585.738C605.224 606.427 663.507 581.687 684.196 530.48L769.607 319.082ZM350.677 919.763C266.698 885.833 226.125 790.249 260.055 706.269C293.985 622.29 389.569 581.717 473.548 615.646C557.528 649.576 598.101 745.161 564.171 829.14C530.241 913.119 434.657 953.693 350.677 919.763ZM1123.61 463.082L819.49 340.211L734.08 551.609C713.391 602.816 738.131 661.099 789.338 681.788L1000.74 767.198L1123.61 463.082ZM551.619 1002.33L855.736 1125.2L978.607 821.082L767.209 735.672C716.002 714.983 657.719 739.722 637.03 790.929L551.619 1002.33Z" fill="url(#paint0_linear)"/>
</g>
<defs>
<linearGradient id="paint0_linear" x1="2.31219" y1="394.734" x2="399.348" y2="1321.07" gradientUnits="userSpaceOnUse">
<stop stop-color="#FF8F71"/>
<stop offset="1" stop-color="#FF3E55"/>
</linearGradient>
</defs>
</svg>
